<?xml version="1.0" encoding="utf-8"?>
<!-- Generator: Adobe Illustrator 16.0.3, SVG Export Plug-In . SVG Version: 6.00 Build 0)  -->
<!DOCTYPE svg PUBLIC "-//W3C//DTD SVG 1.1//EN" "http://www.w3.org/Graphics/SVG/1.1/DTD/svg11.dtd">
<svg version="1.1" id="Layer_1" xmlns="http://www.w3.org/2000/svg" xmlns:xlink="http://www.w3.org/1999/xlink" x="0px" y="0px"
	 width="798.5px" height="800px" viewBox="0 0 798.5 800" style="enable-background:new 0 0 798.5 800;" xml:space="preserve">
<style type="text/css">
<![CDATA[
	.st0{fill:#DB3C40;}
]]>
</style>
<path class="st0" d="M403,10.9c-214.6,0-388.5,173.9-388.5,388.5c0,214.6,173.9,388.5,388.5,388.5c214.6,0,388.5-173.9,388.5-388.5
	C791.5,184.8,617.6,10.9,403,10.9z M311.9,481c24-23.8,47.7-47.9,71.8-71.7c4.7-4.7,6.5-9.4,6.5-15.9c-0.2-51-0.2-102.1-0.1-153.2
	c0-21,10.9-32.8,30-33.1c19.5-0.3,31.3,10.5,31.8,30.3c0.5,21,0.1,42.1,0.2,63.2c0,8.3,0,16.6,0,24.9c0,21.1-0.1,42.1-0.1,63.2
	c0,7,0.1,14,0.2,21.1c0.1,12.3-3.9,22-12.7,30.7c-29.1,28.6-57.7,57.7-86.6,86.5c-9.4,9.4-20.8,12.6-33.3,7.7
	c-11.7-4.6-17.9-14.1-19.1-26.5C299.2,497.1,304.3,488.6,311.9,481z M627.3,635.8c-92,83.9-227.3,105.2-340,53
	c-90.5-41.9-149-111.5-175.9-207.4c-4.7-16.8-6.2-34.5-9.1-51.7c-0.5-2.8-0.8-5.6-1.3-9.6c-18.2,0-35.3,0-54.2,0
	c30-50.2,59.3-99,89.3-149.1c29.9,49.9,59.2,98.7,89.5,149.1c-20.2,0-38.7,0-57.7,0c4.5,53.4,22.4,100.1,56.3,139.9
	c52.4,61.5,119.5,91.6,200.4,90.2c122.5-2.2,229.1-97.8,242.3-222.3c10.9-102.2-29.8-182.3-114-240c-37.1-25.4-78.9-38.5-124-39.8
	c-2.9-0.1-5.7-0.6-8.5-1c-22-2.9-31.7-14.3-30-35c1.7-20.1,15.1-31.8,36.3-30.5c126,8,219.2,67.8,274.7,180.9
	C764.1,390.8,733.1,539.3,627.3,635.8z"/>
</svg>
